<?xml version="1.0" encoding="UTF-8" standalone="no"?>
<!-- Created with Inkscape (http://www.inkscape.org/) -->
<svg
   xmlns:a="http://ns.adobe.com/AdobeSVGViewerExtensions/3.0/"
   xmlns:svg="http://www.w3.org/2000/svg"
   xmlns="http://www.w3.org/2000/svg"
   xmlns:xlink="http://www.w3.org/1999/xlink"
   version="1.0"
   width="372.04724"
   height="524.40942"
   viewBox="0 0 441.12 515.962"
   id="svg2138"
   xml:space="preserve"><defs
   id="defs2410">
		
		
		
		
		
		
		
		
		
		
	<linearGradient
   id="linearGradient8879"><stop
     style="stop-color:#f80;stop-opacity:1"
     offset="0"
     id="stop8881" /><stop
     style="stop-color:#f80;stop-opacity:1"
     offset="0.22935779"
     id="stop8883" /><stop
     style="stop-color:#e3e8e8;stop-opacity:0"
     offset="1"
     id="stop8885" /></linearGradient><clipPath
   id="clipPath8888"><rect
     width="1498.2103"
     height="2096.6912"
     x="-8.0332994"
     y="4.0166497"
     style="fill:white;fill-opacity:1;stroke:none;stroke-width:2;stroke-miterlimit:3.86369991;stroke-dasharray:none;stroke-opacity:1"
     id="rect8890" /></clipPath><linearGradient
   id="linearGradient8892"><stop
     style="stop-color:#e4e8e8;stop-opacity:1"
     offset="0"
     id="stop8894" /><stop
     style="stop-color:#e3e8e8;stop-opacity:0"
     offset="1"
     id="stop8896" /></linearGradient><linearGradient
   x1="-1.8705493"
   y1="995.41876"
   x2="1489.8169"
   y2="995.41876"
   id="linearGradient8898"
   xlink:href="#linearGradient3985"
   gradientUnits="userSpaceOnUse"
   gradientTransform="matrix(0,0.824975,-0.750939,0,1494.095,3.304811)" /><linearGradient
   id="linearGradient7822"><stop
     style="stop-color:#f80;stop-opacity:1"
     offset="0"
     id="stop7824" /><stop
     style="stop-color:#f80;stop-opacity:1"
     offset="0.22935779"
     id="stop7826" /><stop
     style="stop-color:#e3e8e8;stop-opacity:0"
     offset="1"
     id="stop7828" /></linearGradient><linearGradient
   x1="-1.8705493"
   y1="995.41876"
   x2="1489.8169"
   y2="995.41876"
   id="linearGradient7830"
   xlink:href="#linearGradient3985"
   gradientUnits="userSpaceOnUse"
   gradientTransform="matrix(0,0.259511,-0.754989,0,1494.478,5.528268)" /><clipPath
   id="clipPath7832"><rect
     width="1498.2103"
     height="2096.6912"
     x="-8.0332994"
     y="4.0166497"
     style="fill:white;fill-opacity:1;stroke:none;stroke-width:2;stroke-miterlimit:3.86369991;stroke-dasharray:none;stroke-opacity:1"
     id="rect7834" /></clipPath><linearGradient
   id="linearGradient7836"><stop
     style="stop-color:#e4e8e8;stop-opacity:1"
     offset="0"
     id="stop7838" /><stop
     style="stop-color:#e3e8e8;stop-opacity:0"
     offset="1"
     id="stop7840" /></linearGradient><linearGradient
   x1="-1.8705493"
   y1="995.41876"
   x2="1489.8169"
   y2="995.41876"
   id="linearGradient7842"
   xlink:href="#linearGradient3985"
   gradientUnits="userSpaceOnUse"
   gradientTransform="matrix(0,0.824975,-0.750939,0,1494.095,3.304811)" /><linearGradient
   x1="77.543503"
   y1="217.9409"
   x2="77.543503"
   y2="259.36081"
   id="linearGradient7844"
   xlink:href="#XMLID_5_"
   gradientUnits="userSpaceOnUse"
   gradientTransform="matrix(1.156702,0,0,1.156702,297.626,127.6626)" /><linearGradient
   x1="77.543503"
   y1="217.9409"
   x2="77.543503"
   y2="259.36081"
   id="linearGradient7846"
   gradientUnits="userSpaceOnUse"
   gradientTransform="matrix(0.935115,0,0,0.935115,-293.5855,-9.599522)"><stop
     style="stop-color:black;stop-opacity:1"
     offset="0"
     id="stop7848" /><stop
     style="stop-color:black;stop-opacity:1"
     offset="0.51139998"
     id="stop7850" /><stop
     style="stop-color:#454545;stop-opacity:1"
     offset="1"
     id="stop7852" /><a:midPointStop
     style="stop-color:#000000"
     offset="0" /><a:midPointStop
     style="stop-color:#000000"
     offset="0.5" /><a:midPointStop
     style="stop-color:#000000"
     offset="0.5114" /><a:midPointStop
     style="stop-color:#000000"
     offset="0.5" /><a:midPointStop
     style="stop-color:#454545"
     offset="1" /></linearGradient><linearGradient
   x1="121.3486"
   y1="223.7202"
   x2="121.3486"
   y2="231.7661"
   id="linearGradient7854"
   xlink:href="#XMLID_10_"
   gradientUnits="userSpaceOnUse"
   gradientTransform="matrix(0.877218,0,0,0.877218,291.7704,136.1982)"
   spreadMethod="reflect" /><linearGradient
   x1="121.3486"
   y1="223.7202"
   x2="121.3486"
   y2="231.7661"
   id="linearGradient7856"
   gradientUnits="userSpaceOnUse"
   gradientTransform="matrix(0.935115,0,0,0.935115,7.14167,-28.55897)"><stop
     style="stop-color:#545454;stop-opacity:1"
     offset="0"
     id="stop7858" /><stop
     style="stop-color:#666;stop-opacity:1"
     offset="0.34862384"
     id="stop7860" /><stop
     style="stop-color:#7d7d7d;stop-opacity:1"
     offset="1"
     id="stop7862" /><a:midPointStop
     style="stop-color:#171717"
     offset="0" /><a:midPointStop
     style="stop-color:#171717"
     offset="0.5" /><a:midPointStop
     style="stop-color:#636363"
     offset="0.9034" /><a:midPointStop
     style="stop-color:#636363"
     offset="0.5" /><a:midPointStop
     style="stop-color:#5C5C5C"
     offset="1" /></linearGradient><linearGradient
   x1="78.3442"
   y1="217.9409"
   x2="78.3442"
   y2="230.98489"
   id="linearGradient7864"
   gradientUnits="userSpaceOnUse"
   gradientTransform="matrix(1.156702,0,0,1.156702,297.626,127.6626)"><stop
     style="stop-color:black;stop-opacity:1"
     offset="0"
     id="stop7866" /><stop
     style="stop-color:#636363;stop-opacity:1"
     offset="1"
     id="stop7868" /><a:midPointStop
     style="stop-color:#000000"
     offset="0" /><a:midPointStop
     style="stop-color:#000000"
     offset="0.5" /><a:midPointStop
     style="stop-color:#696969"
     offset="1" /></linearGradient><linearGradient
   x1="80.469704"
   y1="223.7202"
   x2="80.469704"
   y2="254.0854"
   id="linearGradient7870"
   gradientUnits="userSpaceOnUse"
   gradientTransform="matrix(1.156702,0,0,1.156702,297.626,127.6626)"><stop
     style="stop-color:black;stop-opacity:1"
     offset="0"
     id="stop7872" /><stop
     style="stop-color:black;stop-opacity:1"
     offset="0.4091"
     id="stop7874" /><stop
     style="stop-color:#4c4c4c;stop-opacity:1"
     offset="0.9091"
     id="stop7876" /><stop
     style="stop-color:#363636;stop-opacity:1"
     offset="1"
     id="stop7878" /><a:midPointStop
     style="stop-color:#000000"
     offset="0" /><a:midPointStop
     style="stop-color:#000000"
     offset="0.5" /><a:midPointStop
     style="stop-color:#000000"
     offset="0.4091" /><a:midPointStop
     style="stop-color:#000000"
     offset="0.5" /><a:midPointStop
     style="stop-color:#4C4C4C"
     offset="0.9091" /><a:midPointStop
     style="stop-color:#4C4C4C"
     offset="0.5" /><a:midPointStop
     style="stop-color:#363636"
     offset="1" /></linearGradient><linearGradient
   x1="77.543503"
   y1="217.9409"
   x2="77.543503"
   y2="259.36081"
   id="linearGradient7880"
   xlink:href="#XMLID_5_"
   gradientUnits="userSpaceOnUse"
   gradientTransform="matrix(1.156702,0,0,1.156702,297.626,127.6626)" /><linearGradient
   x1="127.5879"
   y1="238.2876"
   x2="127.5879"
   y2="256.01221"
   id="linearGradient7882"
   gradientUnits="userSpaceOnUse"
   gradientTransform="matrix(1.156702,0,0,1.156702,297.626,127.6626)"><stop
     style="stop-color:#ff7b00;stop-opacity:1"
     offset="0"
     id="stop7884" /><stop
     style="stop-color:#ffa947;stop-opacity:1"
     offset="0.97189999"
     id="stop7886" /><stop
     style="stop-color:#ff9f31;stop-opacity:1"
     offset="1"
     id="stop7888" /><a:midPointStop
     style="stop-color:#FF7B00"
     offset="0" /><a:midPointStop
     style="stop-color:#FF7B00"
     offset="0.5" /><a:midPointStop
     style="stop-color:#FFA947"
     offset="0.9719" /><a:midPointStop
     style="stop-color:#FFA947"
     offset="0.5" /><a:midPointStop
     style="stop-color:#FF9F31"
     offset="1" /></linearGradient><linearGradient
   x1="125.458"
   y1="306.08249"
   x2="125.458"
   y2="173.0005"
   id="linearGradient7890"
   xlink:href="#XMLID_1_"
   gradientUnits="userSpaceOnUse"
   gradientTransform="matrix(0.690484,0,0,0.568759,350.5161,267.5496)" /><linearGradient
   x1="125.458"
   y1="306.08249"
   x2="125.458"
   y2="173.0005"
   id="linearGradient7892"
   gradientUnits="userSpaceOnUse"><stop
     style="stop-color:#b6c5d4;stop-opacity:1"
     offset="0"
     id="stop7894" /><stop
     style="stop-color:#e4ebf2;stop-opacity:1"
     offset="1"
     id="stop7896" /><a:midPointStop
     offset="0"
     style="stop-color:#BAC5CF" /><a:midPointStop
     offset="0.4494"
     style="stop-color:#BAC5CF" /><a:midPointStop
     offset="1"
     style="stop-color:#DDEBF7" /></linearGradient><linearGradient
   id="linearGradient7118"><stop
     style="stop-color:#f80;stop-opacity:1"
     offset="0"
     id="stop7120" /><stop
     style="stop-color:#f80;stop-opacity:1"
     offset="0.22935779"
     id="stop7122" /><stop
     style="stop-color:#e3e8e8;stop-opacity:0"
     offset="1"
     id="stop7124" /></linearGradient><linearGradient
   x1="-1.8705493"
   y1="995.41876"
   x2="1489.8169"
   y2="995.41876"
   id="linearGradient7126"
   xlink:href="#linearGradient3985"
   gradientUnits="userSpaceOnUse"
   gradientTransform="matrix(0,0.259511,-0.750939,0,1494.463,5.528268)" /><clipPath
   id="clipPath7128"><rect
     width="1498.2103"
     height="2096.6912"
     x="-8.0332994"
     y="4.0166497"
     style="fill:white;fill-opacity:1;stroke:none;stroke-width:2;stroke-miterlimit:3.86369991;stroke-dasharray:none;stroke-opacity:1"
     id="rect7130" /></clipPath><linearGradient
   id="linearGradient7132"><stop
     style="stop-color:#e4e8e8;stop-opacity:1"
     offset="0"
     id="stop7134" /><stop
     style="stop-color:#e3e8e8;stop-opacity:0"
     offset="1"
     id="stop7136" /></linearGradient><linearGradient
   x1="-1.8705493"
   y1="995.41876"
   x2="1489.8169"
   y2="995.41876"
   id="linearGradient7138"
   xlink:href="#linearGradient3985"
   gradientUnits="userSpaceOnUse"
   gradientTransform="matrix(0,0.824975,-0.750939,0,1494.095,3.304811)" /><linearGradient
   x1="125.458"
   y1="306.08249"
   x2="125.458"
   y2="173.0005"
   id="linearGradient4085"
   gradientUnits="userSpaceOnUse"><stop
     style="stop-color:#b6c5d4;stop-opacity:1"
     offset="0"
     id="stop2194" /><stop
     style="stop-color:#e4ebf2;stop-opacity:1"
     offset="1"
     id="stop2198" /><a:midPointStop
     style="stop-color:#BAC5CF"
     offset="0" /><a:midPointStop
     style="stop-color:#BAC5CF"
     offset="0.4494" /><a:midPointStop
     style="stop-color:#DDEBF7"
     offset="1" /></linearGradient><linearGradient
   x1="125.458"
   y1="306.08249"
   x2="125.458"
   y2="173.0005"
   id="linearGradient5254"
   xlink:href="#XMLID_1_"
   gradientUnits="userSpaceOnUse"
   gradientTransform="matrix(0.690484,0,0,0.568759,350.5161,267.5496)" /><linearGradient
   x1="127.5879"
   y1="238.2876"
   x2="127.5879"
   y2="256.01221"
   id="linearGradient4079"
   gradientUnits="userSpaceOnUse"
   gradientTransform="matrix(1.156702,0,0,1.156702,297.626,127.6626)"><stop
     style="stop-color:#ff7b00;stop-opacity:1"
     offset="0"
     id="stop2218" /><stop
     style="stop-color:#ffa947;stop-opacity:1"
     offset="0.97189999"
     id="stop2220" /><stop
     style="stop-color:#ff9f31;stop-opacity:1"
     offset="1"
     id="stop2222" /><a:midPointStop
     offset="0"
     style="stop-color:#FF7B00" /><a:midPointStop
     offset="0.5"
     style="stop-color:#FF7B00" /><a:midPointStop
     offset="0.9719"
     style="stop-color:#FFA947" /><a:midPointStop
     offset="0.5"
     style="stop-color:#FFA947" /><a:midPointStop
     offset="1"
     style="stop-color:#FF9F31" /></linearGradient><linearGradient
   x1="77.543503"
   y1="217.9409"
   x2="77.543503"
   y2="259.36081"
   id="linearGradient7835"
   xlink:href="#XMLID_5_"
   gradientUnits="userSpaceOnUse"
   gradientTransform="matrix(1.156702,0,0,1.156702,297.626,127.6626)" /><linearGradient
   x1="80.469704"
   y1="223.7202"
   x2="80.469704"
   y2="254.0854"
   id="linearGradient4072"
   gradientUnits="userSpaceOnUse"
   gradientTransform="matrix(1.156702,0,0,1.156702,297.626,127.6626)"><stop
     style="stop-color:black;stop-opacity:1"
     offset="0"
     id="stop2252" /><stop
     style="stop-color:black;stop-opacity:1"
     offset="0.4091"
     id="stop2254" /><stop
     style="stop-color:#4c4c4c;stop-opacity:1"
     offset="0.9091"
     id="stop2256" /><stop
     style="stop-color:#363636;stop-opacity:1"
     offset="1"
     id="stop2258" /><a:midPointStop
     offset="0"
     style="stop-color:#000000" /><a:midPointStop
     offset="0.5"
     style="stop-color:#000000" /><a:midPointStop
     offset="0.4091"
     style="stop-color:#000000" /><a:midPointStop
     offset="0.5"
     style="stop-color:#000000" /><a:midPointStop
     offset="0.9091"
     style="stop-color:#4C4C4C" /><a:midPointStop
     offset="0.5"
     style="stop-color:#4C4C4C" /><a:midPointStop
     offset="1"
     style="stop-color:#363636" /></linearGradient><linearGradient
   x1="78.3442"
   y1="217.9409"
   x2="78.3442"
   y2="230.98489"
   id="XMLID_8_"
   gradientUnits="userSpaceOnUse"
   gradientTransform="matrix(1.156702,0,0,1.156702,297.626,127.6626)"><stop
     style="stop-color:black;stop-opacity:1"
     offset="0"
     id="stop2288" /><stop
     style="stop-color:#636363;stop-opacity:1"
     offset="1"
     id="stop2290" /><a:midPointStop
     offset="0"
     style="stop-color:#000000" /><a:midPointStop
     offset="0.5"
     style="stop-color:#000000" /><a:midPointStop
     offset="1"
     style="stop-color:#696969" /></linearGradient><linearGradient
   x1="121.3486"
   y1="223.7202"
   x2="121.3486"
   y2="231.7661"
   id="XMLID_10_"
   gradientUnits="userSpaceOnUse"
   gradientTransform="matrix(0.935115,0,0,0.935115,7.14167,-28.55897)"><stop
     style="stop-color:#545454;stop-opacity:1"
     offset="0"
     id="stop2342" /><stop
     style="stop-color:#666;stop-opacity:1"
     offset="0.34862384"
     id="stop2344" /><stop
     style="stop-color:#7d7d7d;stop-opacity:1"
     offset="1"
     id="stop2346" /><a:midPointStop
     offset="0"
     style="stop-color:#171717" /><a:midPointStop
     offset="0.5"
     style="stop-color:#171717" /><a:midPointStop
     offset="0.9034"
     style="stop-color:#636363" /><a:midPointStop
     offset="0.5"
     style="stop-color:#636363" /><a:midPointStop
     offset="1"
     style="stop-color:#5C5C5C" /></linearGradient><linearGradient
   x1="121.3486"
   y1="223.7202"
   x2="121.3486"
   y2="231.7661"
   id="linearGradient14383"
   xlink:href="#XMLID_10_"
   gradientUnits="userSpaceOnUse"
   gradientTransform="matrix(0.877218,0,0,0.877218,291.7704,136.1982)"
   spreadMethod="reflect" /><linearGradient
   x1="77.543503"
   y1="217.9409"
   x2="77.543503"
   y2="259.36081"
   id="linearGradient4059"
   gradientUnits="userSpaceOnUse"
   gradientTransform="matrix(0.935115,0,0,0.935115,-293.5855,-9.599522)"><stop
     style="stop-color:black;stop-opacity:1"
     offset="0"
     id="stop2243" /><stop
     style="stop-color:black;stop-opacity:1"
     offset="0.51139998"
     id="stop2245" /><stop
     style="stop-color:#454545;stop-opacity:1"
     offset="1"
     id="stop2247" /><a:midPointStop
     offset="0"
     style="stop-color:#000000" /><a:midPointStop
     offset="0.5"
     style="stop-color:#000000" /><a:midPointStop
     offset="0.5114"
     style="stop-color:#000000" /><a:midPointStop
     offset="0.5"
     style="stop-color:#000000" /><a:midPointStop
     offset="1"
     style="stop-color:#454545" /></linearGradient><linearGradient
   x1="77.543503"
   y1="217.9409"
   x2="77.543503"
   y2="259.36081"
   id="linearGradient7833"
   xlink:href="#XMLID_5_"
   gradientUnits="userSpaceOnUse"
   gradientTransform="matrix(1.156702,0,0,1.156702,297.626,127.6626)" /><linearGradient
   x1="-1.8705493"
   y1="995.41876"
   x2="1489.8169"
   y2="995.41876"
   id="linearGradient6596"
   xlink:href="#linearGradient3985"
   gradientUnits="userSpaceOnUse"
   gradientTransform="matrix(0,0.824975,-0.750939,0,1494.095,3.304811)" /><linearGradient
   id="linearGradient6598"><stop
     style="stop-color:#e4e8e8;stop-opacity:1"
     offset="0"
     id="stop6600" /><stop
     style="stop-color:#e3e8e8;stop-opacity:0"
     offset="1"
     id="stop6602" /></linearGradient><linearGradient
   id="linearGradient3985"><stop
     style="stop-color:#f80;stop-opacity:1"
     offset="0"
     id="stop3987" /><stop
     style="stop-color:#f80;stop-opacity:1"
     offset="0.22935779"
     id="stop12977" /><stop
     style="stop-color:#e3e8e8;stop-opacity:0"
     offset="1"
     id="stop3989" /></linearGradient>
			
			
			
			
			
			
			
			
			
			
			
			
			
		<clipPath
   id="clipPath4850"><rect
     width="1560.3888"
     height="2155.054"
     x="-8.0332985"
     y="4.0166483"
     style="fill:white;fill-opacity:1;stroke:none;stroke-width:2;stroke-miterlimit:3.86369991;stroke-dasharray:none;stroke-opacity:1"
     id="rect6380" /></clipPath></defs>
	<style
   type="text/css"
   id="style2140" />
	
	<rect
   width="189.62312"
   height="77.191704"
   x="134.05524"
   y="89.527275"
   style="fill:#fa8810;fill-opacity:1;stroke:none;stroke-width:2;stroke-miterlimit:3.86369991;stroke-dasharray:none;stroke-opacity:1"
   id="rect2048" /><path
   d="M 202.94726,108.95231 L 211.17421,108.95231 C 212.96565,108.95231 214.3044,109.37679 215.19493,110.23021 C 216.0899,111.08066 216.53813,112.29622 216.53813,113.868 C 216.53813,115.48578 216.05131,116.74736 215.0747,117.66014 C 214.10552,118.56848 212.62428,119.02561 210.62802,119.02561 L 207.91935,119.02561 L 207.91935,124.96837 L 202.94726,124.96837 L 202.94726,108.95231 L 202.94726,108.95231 z M 207.92083,115.77965 L 209.13194,115.77965 C 210.08629,115.77965 210.75567,115.61639 211.14156,115.2869 C 211.52745,114.95295 211.7204,114.5255 211.7204,114.009 C 211.7204,113.50585 211.55565,113.07988 211.21874,112.73109 C 210.88331,112.38231 210.25252,112.20569 209.32934,112.20569 L 207.91935,112.20569 L 207.92083,115.77965 z "
   style="fill-rule:evenodd"
   id="path2189" /><path
   d="M 218.20341,108.95231 L 223.1666,108.95231 L 223.1666,124.96837 L 218.20341,124.96837 L 218.20341,108.95231 z "
   id="path2191" /><path
   d="M 226.55207,124.96837 L 226.55207,108.95231 L 234.7998,108.95231 C 236.33299,108.95231 237.49957,109.08143 238.30995,109.34414 C 239.11884,109.60832 239.76892,110.09514 240.26316,110.80905 C 240.75741,111.51405 241.00675,112.37934 241.00824,113.39899 C 241.00824,114.28506 240.81529,115.05239 240.4383,115.70544 C 240.05834,116.34662 239.53887,116.86609 238.87543,117.26534 C 238.45243,117.52211 237.87211,117.73287 237.13743,117.90058 C 237.72814,118.0965 238.15856,118.29241 238.4272,118.48833 C 238.60827,118.62042 238.87246,118.89945 239.21532,119.32839 C 239.5641,119.75881 239.79861,120.09127 239.91289,120.32429 L 242.30395,124.96689 L 236.70998,124.96689 L 234.06809,120.07049 C 233.73117,119.43822 233.43433,119.0271 233.17163,118.83712 C 232.81542,118.59074 232.41023,118.46607 231.96052,118.46607 L 231.52119,118.46607 L 231.52119,124.96689 L 226.55207,124.96837 z M 231.52119,115.44125 L 233.60798,115.44125 C 233.83358,115.44125 234.26994,115.36704 234.92002,115.22159 C 235.24655,115.15777 235.51222,114.99006 235.71704,114.71993 C 235.92928,114.4498 236.03466,114.14109 236.03466,113.79082 C 236.03466,113.27431 235.8714,112.87655 235.54339,112.599 C 235.2139,112.32294 234.59943,112.18639 233.69704,112.18491 L 231.52119,112.18491 L 231.52119,115.44125 z "
   style="fill-rule:evenodd"
   id="path2193" /><path
   d="M 253.74124,122.32203 L 248.10422,122.32203 L 247.32947,124.96689 L 242.27278,124.96689 L 248.29123,108.95082 L 253.68781,108.95082 L 259.70923,124.96689 L 254.53084,124.96689 L 253.74124,122.32203 z M 252.70378,118.85938 L 250.93164,113.10215 L 249.17434,118.85938 L 252.70378,118.85938 z "
   style="fill-rule:evenodd"
   id="path2195" /><path
   d="M 257.31224,108.95231 L 272.35615,108.95231 L 272.35615,112.90475 L 267.31133,112.90475 L 267.31133,124.96689 L 262.36002,124.96689 L 262.36002,112.90475 L 257.31372,112.90475 L 257.31372,108.95231 L 257.31224,108.95231 z "
   id="path2197" /><path
   d="M 274.09564,108.95231 L 287.36147,108.95231 L 287.36147,112.37043 L 279.05437,112.37043 L 279.05437,114.91585 L 286.75889,114.91585 L 286.75889,118.18407 L 279.05437,118.18407 L 279.05437,121.34097 L 287.59895,121.34097 L 287.59895,124.96837 L 274.09564,124.96837 L 274.09564,108.95231 z "
   id="path2199" /><path
   d="M 290.29426,108.95231 L 294.91608,108.95231 L 300.94641,117.81302 L 300.94641,108.95231 L 305.61127,108.95231 L 305.61127,124.96837 L 300.94641,124.96837 L 294.94725,116.17297 L 294.94725,124.96837 L 290.29278,124.96837 L 290.29278,108.95231 L 290.29426,108.95231 z "
   id="path2201" /><path
   d="M 203.59289,131.10853 L 203.59289,131.27476 L 203.59289,147.41105 L 203.59289,147.57431 L 203.75615,147.57431 L 208.8544,147.57431 L 209.01766,147.57431 L 209.01766,147.41105 L 209.01766,141.59148 L 211.63877,141.59148 C 213.71072,141.59148 215.27656,141.12396 216.31402,140.16813 C 217.34851,139.21527 217.87095,137.88839 217.87095,136.22608 C 217.87095,134.60829 217.39303,133.33336 216.43572,132.43838 C 215.48435,131.54341 214.05951,131.10853 212.19683,131.10853 L 203.75615,131.10853 L 203.59289,131.10853 z M 225.10348,131.10853 L 225.06341,131.22133 L 218.89357,147.3591 L 218.80006,147.5758 L 219.04941,147.5758 L 224.23819,147.5758 L 224.36435,147.5758 L 224.39403,147.463 L 225.1584,144.91462 L 230.69004,144.91462 L 231.46331,147.463 L 231.50486,147.5758 L 231.62805,147.5758 L 236.94151,147.5758 L 237.1775,147.5758 L 237.09587,147.3591 L 230.91564,131.22133 L 230.87408,131.10853 L 230.75979,131.10853 L 225.22074,131.10853 L 225.10348,131.10853 z M 241.15666,131.10853 L 241.15666,131.27476 L 241.15666,147.2463 L 241.15666,147.41105 L 241.32289,147.41105 L 241.32289,147.57431 L 246.41817,147.57431 L 246.5844,147.57431 L 246.5844,147.41105 L 246.5844,141.02451 L 246.87233,141.02451 C 247.30572,141.02451 247.67529,141.14177 248.01666,141.3733 C 248.24374,141.53508 248.54503,141.93136 248.88343,142.56067 L 251.59656,147.4912 L 251.64851,147.57431 L 251.74053,147.57431 L 257.48589,147.57431 L 257.75602,147.57431 L 257.63134,147.33684 L 255.17647,142.65417 C 255.04586,142.39889 254.8069,142.06197 254.44327,141.62265 C 254.08854,141.18481 253.811,140.89984 253.59876,140.74548 C 253.38355,140.59261 252.99914,140.45755 252.62957,140.31209 C 253.16834,140.16219 253.69968,140.00486 254.05441,139.79559 C 254.75347,139.3815 255.31005,138.83679 255.71375,138.16593 C 256.11745,137.48468 256.31337,136.67134 256.31337,135.75113 C 256.31337,134.69586 256.0477,133.79198 255.51932,133.04839 C 254.99094,132.30332 254.29633,131.78385 253.43549,131.51075 C 252.57465,131.23766 251.36057,131.10853 249.78286,131.10853 L 241.32289,131.10853 L 241.15666,131.10853 z M 259.35747,131.10853 L 259.35747,131.27476 L 259.35747,135.26579 L 259.35747,135.43054 L 259.52222,135.43054 L 264.53735,135.43054 L 264.53735,147.40957 L 264.53735,147.57283 L 264.70062,147.57283 L 269.77809,147.57283 L 269.94283,147.57283 L 269.94283,147.40957 L 269.94283,135.43054 L 274.95648,135.43054 L 275.12123,135.43054 L 275.12123,135.26579 L 275.12123,131.27476 L 275.12123,131.10853 L 274.95648,131.10853 L 259.52222,131.10853 L 259.35747,131.10853 z M 279.14639,131.10853 L 279.14639,131.27476 L 279.14639,147.41105 L 279.14639,147.57431 L 279.31262,147.57431 L 293.16769,147.57431 L 293.33243,147.57431 L 293.33243,147.41105 L 293.33243,143.75694 L 293.33243,143.59367 L 293.16769,143.59367 L 284.56375,143.59367 L 284.56375,140.74548 L 292.31278,140.74548 L 292.47605,140.74548 L 292.47605,140.58074 L 292.47605,137.28877 L 292.47605,137.12402 L 292.31278,137.12402 L 284.56375,137.12402 L 284.56375,134.88732 L 292.91983,134.88732 L 293.08457,134.88732 L 293.08457,134.72109 L 293.08457,131.27625 L 293.08457,131.11002 L 292.91983,131.11002 L 279.31262,131.11002 L 279.14639,131.11002 L 279.14639,131.10853 z M 299.42065,131.10853 L 299.42065,131.27476 L 299.42065,147.41105 L 299.42065,147.57431 L 299.58539,147.57431 L 304.67325,147.57431 L 304.83652,147.57431 L 304.83652,147.41105 L 304.83652,131.27476 L 304.83652,131.10853 L 304.67325,131.10853 L 299.58539,131.10853 L 299.42065,131.10853 z M 246.58588,134.69883 L 248.64893,134.69883 C 249.55875,134.69883 250.16579,134.85318 250.44482,135.08175 C 250.74314,135.32813 250.8886,135.6695 250.8886,136.15632 C 250.8886,136.47394 250.79361,136.74703 250.60066,136.99044 C 250.41513,137.23237 250.17766,137.37485 249.87785,137.43422 C 249.21886,137.57967 248.7647,137.6524 248.56878,137.6524 L 246.58737,137.6524 L 246.58737,134.69883 L 246.58588,134.69883 z M 209.01766,134.72109 L 210.30743,134.72109 C 211.23506,134.72109 211.83468,134.9081 212.12559,135.20494 C 212.44024,135.53147 212.59905,135.90252 212.59905,136.37004 C 212.59905,136.85093 212.41649,137.22643 212.05138,137.53811 C 211.71001,137.82605 211.0629,137.9908 210.1041,137.9908 L 209.01914,137.9908 L 209.01914,134.72109 L 209.01766,134.72109 z M 227.94277,136.01977 L 229.519,141.09724 L 226.36061,141.09724 L 227.94277,136.01977 z "
   style="fill:white;fill-rule:evenodd"
   id="path2203" /><path
   d="M 149.10345,127.60878 C 149.10345,114.48543 159.74521,103.84664 172.86856,103.84664 C 185.99042,103.84664 196.6307,114.48691 196.6307,127.60878 C 196.6307,140.73361 185.99042,151.37091 172.86856,151.37091 C 159.74521,151.37091 149.10345,140.73361 149.10345,127.60878 z "
   style="fill:white"
   id="path2205" /><path
   d="M 166.99259,115.13254 L 166.99259,133.19681 C 167.27162,132.99347 167.57736,132.79904 167.90834,132.61649 C 172.50641,130.11263 174.22958,127.8507 174.15833,123.69344 C 174.06038,118.16923 170.51461,115.89245 166.99259,115.13254 z M 164.88353,109.74636 L 166.99259,109.74636 L 166.99259,113.15409 C 168.86417,112.73109 171.26562,112.46245 174.30972,112.46245 C 182.44762,112.46245 188.60263,115.06278 190.00223,122.39921 C 191.30537,129.22508 187.31879,131.27625 181.61795,132.89255 C 177.11339,134.166 169.25155,134.47916 167.14398,137.11363 C 165.03492,139.7481 164.94587,143.08904 165.71765,146.07527 C 164.62825,143.33839 164.05683,141.55141 164.05683,139.36962 C 164.05683,138.1882 164.26907,136.88061 164.88353,135.66356 L 164.88353,114.84312 C 164.10135,114.79414 163.35777,114.80601 162.69581,114.86093 C 163.25387,114.47207 163.97223,114.09656 164.88353,113.7641 L 164.88353,109.74636 z "
   id="path2207" /><path
   d="M 172.85223,102.82699 C 159.17973,102.82699 148.10161,113.94221 148.10161,127.61768 C 148.10161,141.29167 159.17973,152.40689 172.85223,152.40689 C 186.52622,152.40689 197.64589,141.29167 197.64589,127.61768 C 197.64589,113.94369 186.52622,102.82699 172.85223,102.82699 z M 172.85223,104.8648 C 185.42791,104.8648 195.60363,115.04349 195.60363,127.61768 C 195.60363,140.19187 185.42791,150.36907 172.85223,150.36907 C 160.27952,150.36907 150.14091,140.19187 150.14091,127.61768 C 150.14091,115.042 160.27952,104.8648 172.85223,104.8648 z "
   style="fill-rule:evenodd"
   id="path2209" /><path
   d="M 172.85223,102.82699 C 159.17973,102.82699 148.10161,113.94221 148.10161,127.61768 C 148.10161,141.29167 159.17973,152.40689 172.85223,152.40689 C 186.52622,152.40689 197.64589,141.29167 197.64589,127.61768 C 197.64589,113.94369 186.52622,102.82699 172.85223,102.82699 z M 172.85223,104.8648 C 185.42791,104.8648 195.60363,115.04349 195.60363,127.61768 C 195.60363,140.19187 185.42791,150.36907 172.85223,150.36907 C 160.27952,150.36907 150.14091,140.19187 150.14091,127.61768 C 150.14091,115.042 160.27952,104.8648 172.85223,104.8648 z "
   style="fill:none;stroke:black;stroke-width:0.39539248;stroke-miterlimit:3.86369991"
   id="path2211" />
<flowRoot
   transform="translate(3955.186,587.8577)"
   id="flowRoot1936"
   xml:space="preserve"><flowRegion
     id="flowRegion1938"><rect
       width="352.25403"
       height="299.50101"
       x="125.92656"
       y="1885.2037"
       id="rect1940" /></flowRegion><flowPara
     id="flowPara1942" /></flowRoot><flowRoot
   transform="translate(5515.982,581.4542)"
   id="flowRoot6665"
   xml:space="preserve"><flowRegion
     id="flowRegion6667"><rect
       width="352.25403"
       height="299.50101"
       x="125.92656"
       y="1885.2037"
       id="rect6669" /></flowRegion><flowPara
     id="flowPara6671" /></flowRoot><text
   x="5813.2139"
   y="1806.5323"
   style="font-size:13px;font-style:normal;font-variant:normal;font-weight:normal;font-stretch:normal;text-align:start;line-height:125%;writing-mode:lr-tb;text-anchor:start;fill:black;fill-opacity:1;stroke:none;stroke-width:1px;stroke-linecap:butt;stroke-linejoin:miter;stroke-opacity:1;font-family:Yanone Tagesschrift"
   id="text2941"
   xml:space="preserve"><tspan
     x="5813.2139"
     y="1806.5323"
     id="tspan2943" /></text>


<flowRoot
   transform="translate(2154.633,-1714.733)"
   id="flowRoot7181"
   xml:space="preserve"><flowRegion
     id="flowRegion7183"><rect
       width="352.25403"
       height="299.50101"
       x="125.92656"
       y="1885.2037"
       id="rect7185" /></flowRegion><flowPara
     id="flowPara7187" /></flowRoot><flowRoot
   transform="translate(3715.429,-1721.136)"
   id="flowRoot7191"
   xml:space="preserve"><flowRegion
     id="flowRegion7193"><rect
       width="352.25403"
       height="299.50101"
       x="125.92656"
       y="1885.2037"
       id="rect7195" /></flowRegion><flowPara
     id="flowPara7197" /></flowRoot><text
   x="4012.6611"
   y="-496.05856"
   style="font-size:13px;font-style:normal;font-variant:normal;font-weight:normal;font-stretch:normal;text-align:start;line-height:125%;writing-mode:lr-tb;text-anchor:start;fill:black;fill-opacity:1;stroke:none;stroke-width:1px;stroke-linecap:butt;stroke-linejoin:miter;stroke-opacity:1;font-family:Yanone Tagesschrift"
   id="text7203"
   xml:space="preserve"><tspan
     x="4012.6611"
     y="-496.05856"
     id="tspan7205" /></text>


<flowRoot
   transform="translate(2224.015,-1971.262)"
   id="flowRoot7938"
   xml:space="preserve"><flowRegion
     id="flowRegion7940"><rect
       width="352.25403"
       height="299.50101"
       x="125.92656"
       y="1885.2037"
       id="rect7942" /></flowRegion><flowPara
     id="flowPara7944" /></flowRoot><flowRoot
   transform="translate(3784.811,-1977.665)"
   id="flowRoot7948"
   xml:space="preserve"><flowRegion
     id="flowRegion7950"><rect
       width="352.25403"
       height="299.50101"
       x="125.92656"
       y="1885.2037"
       id="rect7952" /></flowRegion><flowPara
     id="flowPara7954" /></flowRoot><text
   x="4082.043"
   y="-752.58759"
   style="font-size:13px;font-style:normal;font-variant:normal;font-weight:normal;font-stretch:normal;text-align:start;line-height:125%;writing-mode:lr-tb;text-anchor:start;fill:black;fill-opacity:1;stroke:none;stroke-width:1px;stroke-linecap:butt;stroke-linejoin:miter;stroke-opacity:1;font-family:Yanone Tagesschrift"
   id="text7960"
   xml:space="preserve"><tspan
     x="4082.043"
     y="-752.58759"
     id="tspan7962" /></text>


<flowRoot
   transform="translate(2564.838,-2212.599)"
   id="flowRoot8935"
   xml:space="preserve"><flowRegion
     id="flowRegion8937"><rect
       width="352.25403"
       height="299.50101"
       x="125.92656"
       y="1885.2037"
       id="rect8939" /></flowRegion><flowPara
     id="flowPara8941" /></flowRoot><flowRoot
   transform="translate(4125.634,-2219.002)"
   id="flowRoot8945"
   xml:space="preserve"><flowRegion
     id="flowRegion8947"><rect
       width="352.25403"
       height="299.50101"
       x="125.92656"
       y="1885.2037"
       id="rect8949" /></flowRegion><flowPara
     id="flowPara8951" /></flowRoot><text
   x="4422.8662"
   y="-993.92462"
   style="font-size:13px;font-style:normal;font-variant:normal;font-weight:normal;font-stretch:normal;text-align:start;line-height:125%;writing-mode:lr-tb;text-anchor:start;fill:black;fill-opacity:1;stroke:none;stroke-width:1px;stroke-linecap:butt;stroke-linejoin:miter;stroke-opacity:1;font-family:Yanone Tagesschrift"
   id="text8957"
   xml:space="preserve"><tspan
     x="4422.8662"
     y="-993.92462"
     id="tspan8959" /></text>


<rect
   width="189.62312"
   height="77.191704"
   x="134.05524"
   y="192.59474"
   style="fill:white;fill-opacity:1;stroke:none;stroke-width:2;stroke-miterlimit:3.86369991;stroke-dasharray:none;stroke-opacity:1"
   id="rect2068" /><path
   d="M 202.94726,212.01977 L 211.17421,212.01977 C 212.96565,212.01977 214.3044,212.44425 215.19493,213.29767 C 216.0899,214.14812 216.53813,215.36368 216.53813,216.93546 C 216.53813,218.55324 216.05131,219.81482 215.0747,220.7276 C 214.10552,221.63594 212.62428,222.09307 210.62802,222.09307 L 207.91935,222.09307 L 207.91935,228.03583 L 202.94726,228.03583 L 202.94726,212.01977 L 202.94726,212.01977 z M 207.92083,218.84711 L 209.13194,218.84711 C 210.08629,218.84711 210.75567,218.68385 211.14156,218.35436 C 211.52745,218.02041 211.7204,217.59296 211.7204,217.07646 C 211.7204,216.57331 211.55565,216.14734 211.21874,215.79855 C 210.88331,215.44977 210.25252,215.27315 209.32934,215.27315 L 207.91935,215.27315 L 207.92083,218.84711 z "
   style="fill-rule:evenodd"
   id="path2070" /><path
   d="M 218.20341,212.01977 L 223.1666,212.01977 L 223.1666,228.03583 L 218.20341,228.03583 L 218.20341,212.01977 z "
   id="path2072" /><path
   d="M 226.55207,228.03583 L 226.55207,212.01977 L 234.7998,212.01977 C 236.33299,212.01977 237.49957,212.14889 238.30995,212.4116 C 239.11884,212.67578 239.76892,213.1626 240.26316,213.87651 C 240.75741,214.58151 241.00675,215.4468 241.00824,216.46645 C 241.00824,217.35252 240.81529,218.11985 240.4383,218.7729 C 240.05834,219.41408 239.53887,219.93355 238.87543,220.3328 C 238.45243,220.58957 237.87211,220.80033 237.13743,220.96804 C 237.72814,221.16396 238.15856,221.35987 238.4272,221.55579 C 238.60827,221.68788 238.87246,221.96691 239.21532,222.39585 C 239.5641,222.82627 239.79861,223.15873 239.91289,223.39175 L 242.30395,228.03435 L 236.70998,228.03435 L 234.06809,223.13795 C 233.73117,222.50568 233.43433,222.09456 233.17163,221.90458 C 232.81542,221.6582 232.41023,221.53353 231.96052,221.53353 L 231.52119,221.53353 L 231.52119,228.03435 L 226.55207,228.03583 z M 231.52119,218.50871 L 233.60798,218.50871 C 233.83358,218.50871 234.26994,218.4345 234.92002,218.28905 C 235.24655,218.22523 235.51222,218.05752 235.71704,217.78739 C 235.92928,217.51726 236.03466,217.20855 236.03466,216.85828 C 236.03466,216.34177 235.8714,215.94401 235.54339,215.66646 C 235.2139,215.3904 234.59943,215.25385 233.69704,215.25237 L 231.52119,215.25237 L 231.52119,218.50871 z "
   style="fill-rule:evenodd"
   id="path2074" /><path
   d="M 253.74124,225.38949 L 248.10422,225.38949 L 247.32947,228.03435 L 242.27278,228.03435 L 248.29123,212.01828 L 253.68781,212.01828 L 259.70923,228.03435 L 254.53084,228.03435 L 253.74124,225.38949 z M 252.70378,221.92684 L 250.93164,216.16961 L 249.17434,221.92684 L 252.70378,221.92684 z "
   style="fill-rule:evenodd"
   id="path2076" /><path
   d="M 257.31224,212.01977 L 272.35615,212.01977 L 272.35615,215.97221 L 267.31133,215.97221 L 267.31133,228.03435 L 262.36002,228.03435 L 262.36002,215.97221 L 257.31372,215.97221 L 257.31372,212.01977 L 257.31224,212.01977 z "
   id="path2078" /><path
   d="M 274.09564,212.01977 L 287.36147,212.01977 L 287.36147,215.43789 L 279.05437,215.43789 L 279.05437,217.98331 L 286.75889,217.98331 L 286.75889,221.25153 L 279.05437,221.25153 L 279.05437,224.40843 L 287.59895,224.40843 L 287.59895,228.03583 L 274.09564,228.03583 L 274.09564,212.01977 z "
   id="path2080" /><path
   d="M 290.29426,212.01977 L 294.91608,212.01977 L 300.94641,220.88048 L 300.94641,212.01977 L 305.61127,212.01977 L 305.61127,228.03583 L 300.94641,228.03583 L 294.94725,219.24043 L 294.94725,228.03583 L 290.29278,228.03583 L 290.29278,212.01977 L 290.29426,212.01977 z "
   id="path2082" /><path
   d="M 203.59289,234.17599 L 203.59289,234.34222 L 203.59289,250.47851 L 203.59289,250.64177 L 203.75615,250.64177 L 208.8544,250.64177 L 209.01766,250.64177 L 209.01766,250.47851 L 209.01766,244.65894 L 211.63877,244.65894 C 213.71072,244.65894 215.27656,244.19142 216.31402,243.23559 C 217.34851,242.28273 217.87095,240.95585 217.87095,239.29354 C 217.87095,237.67575 217.39303,236.40082 216.43572,235.50584 C 215.48435,234.61087 214.05951,234.17599 212.19683,234.17599 L 203.75615,234.17599 L 203.59289,234.17599 z M 225.10348,234.17599 L 225.06341,234.28879 L 218.89357,250.42656 L 218.80006,250.64326 L 219.04941,250.64326 L 224.23819,250.64326 L 224.36435,250.64326 L 224.39403,250.53046 L 225.1584,247.98208 L 230.69004,247.98208 L 231.46331,250.53046 L 231.50486,250.64326 L 231.62805,250.64326 L 236.94151,250.64326 L 237.1775,250.64326 L 237.09587,250.42656 L 230.91564,234.28879 L 230.87408,234.17599 L 230.75979,234.17599 L 225.22074,234.17599 L 225.10348,234.17599 z M 241.15666,234.17599 L 241.15666,234.34222 L 241.15666,250.31376 L 241.15666,250.47851 L 241.32289,250.47851 L 241.32289,250.64177 L 246.41817,250.64177 L 246.5844,250.64177 L 246.5844,250.47851 L 246.5844,244.09197 L 246.87233,244.09197 C 247.30572,244.09197 247.67529,244.20923 248.01666,244.44076 C 248.24374,244.60254 248.54503,244.99882 248.88343,245.62813 L 251.59656,250.55866 L 251.64851,250.64177 L 251.74053,250.64177 L 257.48589,250.64177 L 257.75602,250.64177 L 257.63134,250.4043 L 255.17647,245.72163 C 255.04586,245.46635 254.8069,245.12943 254.44327,244.69011 C 254.08854,244.25227 253.811,243.9673 253.59876,243.81294 C 253.38355,243.66007 252.99914,243.52501 252.62957,243.37955 C 253.16834,243.22965 253.69968,243.07232 254.05441,242.86305 C 254.75347,242.44896 255.31005,241.90425 255.71375,241.23339 C 256.11745,240.55214 256.31337,239.7388 256.31337,238.81859 C 256.31337,237.76332 256.0477,236.85944 255.51932,236.11585 C 254.99094,235.37078 254.29633,234.85131 253.43549,234.57821 C 252.57465,234.30512 251.36057,234.17599 249.78286,234.17599 L 241.32289,234.17599 L 241.15666,234.17599 z M 259.35747,234.17599 L 259.35747,234.34222 L 259.35747,238.33325 L 259.35747,238.498 L 259.52222,238.498 L 264.53735,238.498 L 264.53735,250.47703 L 264.53735,250.64029 L 264.70062,250.64029 L 269.77809,250.64029 L 269.94283,250.64029 L 269.94283,250.47703 L 269.94283,238.498 L 274.95648,238.498 L 275.12123,238.498 L 275.12123,238.33325 L 275.12123,234.34222 L 275.12123,234.17599 L 274.95648,234.17599 L 259.52222,234.17599 L 259.35747,234.17599 z M 279.14639,234.17599 L 279.14639,234.34222 L 279.14639,250.47851 L 279.14639,250.64177 L 279.31262,250.64177 L 293.16769,250.64177 L 293.33243,250.64177 L 293.33243,250.47851 L 293.33243,246.8244 L 293.33243,246.66113 L 293.16769,246.66113 L 284.56375,246.66113 L 284.56375,243.81294 L 292.31278,243.81294 L 292.47605,243.81294 L 292.47605,243.6482 L 292.47605,240.35623 L 292.47605,240.19148 L 292.31278,240.19148 L 284.56375,240.19148 L 284.56375,237.95478 L 292.91983,237.95478 L 293.08457,237.95478 L 293.08457,237.78855 L 293.08457,234.34371 L 293.08457,234.17748 L 292.91983,234.17748 L 279.31262,234.17748 L 279.14639,234.17748 L 279.14639,234.17599 z M 299.42065,234.17599 L 299.42065,234.34222 L 299.42065,250.47851 L 299.42065,250.64177 L 299.58539,250.64177 L 304.67325,250.64177 L 304.83652,250.64177 L 304.83652,250.47851 L 304.83652,234.34222 L 304.83652,234.17599 L 304.67325,234.17599 L 299.58539,234.17599 L 299.42065,234.17599 z M 246.58588,237.76629 L 248.64893,237.76629 C 249.55875,237.76629 250.16579,237.92064 250.44482,238.14921 C 250.74314,238.39559 250.8886,238.73696 250.8886,239.22378 C 250.8886,239.5414 250.79361,239.81449 250.60066,240.0579 C 250.41513,240.29983 250.17766,240.44231 249.87785,240.50168 C 249.21886,240.64713 248.7647,240.71986 248.56878,240.71986 L 246.58737,240.71986 L 246.58737,237.76629 L 246.58588,237.76629 z M 209.01766,237.78855 L 210.30743,237.78855 C 211.23506,237.78855 211.83468,237.97556 212.12559,238.2724 C 212.44024,238.59893 212.59905,238.96998 212.59905,239.4375 C 212.59905,239.91839 212.41649,240.29389 212.05138,240.60557 C 211.71001,240.89351 211.0629,241.05826 210.1041,241.05826 L 209.01914,241.05826 L 209.01914,237.78855 L 209.01766,237.78855 z M 227.94277,239.08723 L 229.519,244.1647 L 226.36061,244.1647 L 227.94277,239.08723 z "
   style="fill:#fa8810;fill-opacity:1;fill-rule:evenodd"
   id="path2084" /><path
   d="M 149.10345,230.67624 C 149.10345,217.55289 159.74521,206.9141 172.86856,206.9141 C 185.99042,206.9141 196.6307,217.55437 196.6307,230.67624 C 196.6307,243.80107 185.99042,254.43837 172.86856,254.43837 C 159.74521,254.43837 149.10345,243.80107 149.10345,230.67624 z "
   style="fill:white"
   id="path2086" /><path
   d="M 166.99259,218.2 L 166.99259,236.26427 C 167.27162,236.06093 167.57736,235.8665 167.90834,235.68395 C 172.50641,233.18009 174.22958,230.91816 174.15833,226.7609 C 174.06038,221.23669 170.51461,218.95991 166.99259,218.2 z M 164.88353,212.81382 L 166.99259,212.81382 L 166.99259,216.22155 C 168.86417,215.79855 171.26562,215.52991 174.30972,215.52991 C 182.44762,215.52991 188.60263,218.13024 190.00223,225.46667 C 191.30537,232.29254 187.31879,234.34371 181.61795,235.96001 C 177.11339,237.23346 169.25155,237.54662 167.14398,240.18109 C 165.03492,242.81556 164.94587,246.1565 165.71765,249.14273 C 164.62825,246.40585 164.05683,244.61887 164.05683,242.43708 C 164.05683,241.25566 164.26907,239.94807 164.88353,238.73102 L 164.88353,217.91058 C 164.10135,217.8616 163.35777,217.87347 162.69581,217.92839 C 163.25387,217.53953 163.97223,217.16402 164.88353,216.83156 L 164.88353,212.81382 z "
   id="path2088" /><path
   d="M 172.85223,205.89445 C 159.17973,205.89445 148.10161,217.00967 148.10161,230.68514 C 148.10161,244.35913 159.17973,255.47435 172.85223,255.47435 C 186.52622,255.47435 197.64589,244.35913 197.64589,230.68514 C 197.64589,217.01115 186.52622,205.89445 172.85223,205.89445 z M 172.85223,207.93226 C 185.42791,207.93226 195.60363,218.11095 195.60363,230.68514 C 195.60363,243.25933 185.42791,253.43653 172.85223,253.43653 C 160.27952,253.43653 150.14091,243.25933 150.14091,230.68514 C 150.14091,218.10946 160.27952,207.93226 172.85223,207.93226 z "
   style="fill-rule:evenodd"
   id="path2090" /><path
   d="M 172.85223,205.89445 C 159.17973,205.89445 148.10161,217.00967 148.10161,230.68514 C 148.10161,244.35913 159.17973,255.47435 172.85223,255.47435 C 186.52622,255.47435 197.64589,244.35913 197.64589,230.68514 C 197.64589,217.01115 186.52622,205.89445 172.85223,205.89445 z M 172.85223,207.93226 C 185.42791,207.93226 195.60363,218.11095 195.60363,230.68514 C 195.60363,243.25933 185.42791,253.43653 172.85223,253.43653 C 160.27952,253.43653 150.14091,243.25933 150.14091,230.68514 C 150.14091,218.10946 160.27952,207.93226 172.85223,207.93226 z "
   style="fill:none;stroke:black;stroke-width:0.39539248;stroke-miterlimit:3.86369991"
   id="path2092" /><rect
   width="189.62312"
   height="77.191704"
   x="134.05524"
   y="296.13937"
   style="fill:white;fill-opacity:1;stroke:none;stroke-width:2;stroke-miterlimit:3.86369991;stroke-dasharray:none;stroke-opacity:1"
   id="rect2094" /><path
   d="M 202.94726,315.5644 L 211.17421,315.5644 C 212.96565,315.5644 214.3044,315.98888 215.19493,316.8423 C 216.0899,317.69275 216.53813,318.90831 216.53813,320.48009 C 216.53813,322.09787 216.05131,323.35945 215.0747,324.27223 C 214.10552,325.18057 212.62428,325.6377 210.62802,325.6377 L 207.91935,325.6377 L 207.91935,331.58046 L 202.94726,331.58046 L 202.94726,315.5644 L 202.94726,315.5644 z M 207.92083,322.39174 L 209.13194,322.39174 C 210.08629,322.39174 210.75567,322.22848 211.14156,321.89899 C 211.52745,321.56504 211.7204,321.13759 211.7204,320.62109 C 211.7204,320.11794 211.55565,319.69197 211.21874,319.34318 C 210.88331,318.9944 210.25252,318.81778 209.32934,318.81778 L 207.91935,318.81778 L 207.92083,322.39174 z "
   style="fill-rule:evenodd"
   id="path2096" /><path
   d="M 218.20341,315.5644 L 223.1666,315.5644 L 223.1666,331.58046 L 218.20341,331.58046 L 218.20341,315.5644 z "
   id="path2098" /><path
   d="M 226.55207,331.58046 L 226.55207,315.5644 L 234.7998,315.5644 C 236.33299,315.5644 237.49957,315.69352 238.30995,315.95623 C 239.11884,316.22041 239.76892,316.70723 240.26316,317.42114 C 240.75741,318.12614 241.00675,318.99143 241.00824,320.01108 C 241.00824,320.89715 240.81529,321.66448 240.4383,322.31753 C 240.05834,322.95871 239.53887,323.47818 238.87543,323.87743 C 238.45243,324.1342 237.87211,324.34496 237.13743,324.51267 C 237.72814,324.70859 238.15856,324.9045 238.4272,325.10042 C 238.60827,325.23251 238.87246,325.51154 239.21532,325.94048 C 239.5641,326.3709 239.79861,326.70336 239.91289,326.93638 L 242.30395,331.57898 L 236.70998,331.57898 L 234.06809,326.68258 C 233.73117,326.05031 233.43433,325.63919 233.17163,325.44921 C 232.81542,325.20283 232.41023,325.07816 231.96052,325.07816 L 231.52119,325.07816 L 231.52119,331.57898 L 226.55207,331.58046 z M 231.52119,322.05334 L 233.60798,322.05334 C 233.83358,322.05334 234.26994,321.97913 234.92002,321.83368 C 235.24655,321.76986 235.51222,321.60215 235.71704,321.33202 C 235.92928,321.06189 236.03466,320.75318 236.03466,320.40291 C 236.03466,319.8864 235.8714,319.48864 235.54339,319.21109 C 235.2139,318.93503 234.59943,318.79848 233.69704,318.797 L 231.52119,318.797 L 231.52119,322.05334 z "
   style="fill-rule:evenodd"
   id="path2100" /><path
   d="M 253.74124,328.93412 L 248.10422,328.93412 L 247.32947,331.57898 L 242.27278,331.57898 L 248.29123,315.56291 L 253.68781,315.56291 L 259.70923,331.57898 L 254.53084,331.57898 L 253.74124,328.93412 z M 252.70378,325.47147 L 250.93164,319.71424 L 249.17434,325.47147 L 252.70378,325.47147 z "
   style="fill-rule:evenodd"
   id="path2102" /><path
   d="M 257.31224,315.5644 L 272.35615,315.5644 L 272.35615,319.51684 L 267.31133,319.51684 L 267.31133,331.57898 L 262.36002,331.57898 L 262.36002,319.51684 L 257.31372,319.51684 L 257.31372,315.5644 L 257.31224,315.5644 z "
   id="path2104" /><path
   d="M 274.09564,315.5644 L 287.36147,315.5644 L 287.36147,318.98252 L 279.05437,318.98252 L 279.05437,321.52794 L 286.75889,321.52794 L 286.75889,324.79616 L 279.05437,324.79616 L 279.05437,327.95306 L 287.59895,327.95306 L 287.59895,331.58046 L 274.09564,331.58046 L 274.09564,315.5644 z "
   id="path2106" /><path
   d="M 290.29426,315.5644 L 294.91608,315.5644 L 300.94641,324.42511 L 300.94641,315.5644 L 305.61127,315.5644 L 305.61127,331.58046 L 300.94641,331.58046 L 294.94725,322.78506 L 294.94725,331.58046 L 290.29278,331.58046 L 290.29278,315.5644 L 290.29426,315.5644 z "
   id="path2108" /><path
   d="M 203.59289,337.72062 L 203.59289,337.88685 L 203.59289,354.02314 L 203.59289,354.1864 L 203.75615,354.1864 L 208.8544,354.1864 L 209.01766,354.1864 L 209.01766,354.02314 L 209.01766,348.20357 L 211.63877,348.20357 C 213.71072,348.20357 215.27656,347.73605 216.31402,346.78022 C 217.34851,345.82736 217.87095,344.50048 217.87095,342.83817 C 217.87095,341.22038 217.39303,339.94545 216.43572,339.05047 C 215.48435,338.1555 214.05951,337.72062 212.19683,337.72062 L 203.75615,337.72062 L 203.59289,337.72062 z M 225.10348,337.72062 L 225.06341,337.83342 L 218.89357,353.97119 L 218.80006,354.18789 L 219.04941,354.18789 L 224.23819,354.18789 L 224.36435,354.18789 L 224.39403,354.07509 L 225.1584,351.52671 L 230.69004,351.52671 L 231.46331,354.07509 L 231.50486,354.18789 L 231.62805,354.18789 L 236.94151,354.18789 L 237.1775,354.18789 L 237.09587,353.97119 L 230.91564,337.83342 L 230.87408,337.72062 L 230.75979,337.72062 L 225.22074,337.72062 L 225.10348,337.72062 z M 241.15666,337.72062 L 241.15666,337.88685 L 241.15666,353.85839 L 241.15666,354.02314 L 241.32289,354.02314 L 241.32289,354.1864 L 246.41817,354.1864 L 246.5844,354.1864 L 246.5844,354.02314 L 246.5844,347.6366 L 246.87233,347.6366 C 247.30572,347.6366 247.67529,347.75386 248.01666,347.98539 C 248.24374,348.14717 248.54503,348.54345 248.88343,349.17276 L 251.59656,354.10329 L 251.64851,354.1864 L 251.74053,354.1864 L 257.48589,354.1864 L 257.75602,354.1864 L 257.63134,353.94893 L 255.17647,349.26626 C 255.04586,349.01098 254.8069,348.67406 254.44327,348.23474 C 254.08854,347.7969 253.811,347.51193 253.59876,347.35757 C 253.38355,347.2047 252.99914,347.06964 252.62957,346.92418 C 253.16834,346.77428 253.69968,346.61695 254.05441,346.40768 C 254.75347,345.99359 255.31005,345.44888 255.71375,344.77802 C 256.11745,344.09677 256.31337,343.28343 256.31337,342.36322 C 256.31337,341.30795 256.0477,340.40407 255.51932,339.66048 C 254.99094,338.91541 254.29633,338.39594 253.43549,338.12284 C 252.57465,337.84975 251.36057,337.72062 249.78286,337.72062 L 241.32289,337.72062 L 241.15666,337.72062 z M 259.35747,337.72062 L 259.35747,337.88685 L 259.35747,341.87788 L 259.35747,342.04263 L 259.52222,342.04263 L 264.53735,342.04263 L 264.53735,354.02166 L 264.53735,354.18492 L 264.70062,354.18492 L 269.77809,354.18492 L 269.94283,354.18492 L 269.94283,354.02166 L 269.94283,342.04263 L 274.95648,342.04263 L 275.12123,342.04263 L 275.12123,341.87788 L 275.12123,337.88685 L 275.12123,337.72062 L 274.95648,337.72062 L 259.52222,337.72062 L 259.35747,337.72062 z M 279.14639,337.72062 L 279.14639,337.88685 L 279.14639,354.02314 L 279.14639,354.1864 L 279.31262,354.1864 L 293.16769,354.1864 L 293.33243,354.1864 L 293.33243,354.02314 L 293.33243,350.36903 L 293.33243,350.20576 L 293.16769,350.20576 L 284.56375,350.20576 L 284.56375,347.35757 L 292.31278,347.35757 L 292.47605,347.35757 L 292.47605,347.19283 L 292.47605,343.90086 L 292.47605,343.73611 L 292.31278,343.73611 L 284.56375,343.73611 L 284.56375,341.49941 L 292.91983,341.49941 L 293.08457,341.49941 L 293.08457,341.33318 L 293.08457,337.88834 L 293.08457,337.72211 L 292.91983,337.72211 L 279.31262,337.72211 L 279.14639,337.72211 L 279.14639,337.72062 z M 299.42065,337.72062 L 299.42065,337.88685 L 299.42065,354.02314 L 299.42065,354.1864 L 299.58539,354.1864 L 304.67325,354.1864 L 304.83652,354.1864 L 304.83652,354.02314 L 304.83652,337.88685 L 304.83652,337.72062 L 304.67325,337.72062 L 299.58539,337.72062 L 299.42065,337.72062 z M 246.58588,341.31092 L 248.64893,341.31092 C 249.55875,341.31092 250.16579,341.46527 250.44482,341.69384 C 250.74314,341.94022 250.8886,342.28159 250.8886,342.76841 C 250.8886,343.08603 250.79361,343.35912 250.60066,343.60253 C 250.41513,343.84446 250.17766,343.98694 249.87785,344.04631 C 249.21886,344.19176 248.7647,344.26449 248.56878,344.26449 L 246.58737,344.26449 L 246.58737,341.31092 L 246.58588,341.31092 z M 209.01766,341.33318 L 210.30743,341.33318 C 211.23506,341.33318 211.83468,341.52019 212.12559,341.81703 C 212.44024,342.14356 212.59905,342.51461 212.59905,342.98213 C 212.59905,343.46302 212.41649,343.83852 212.05138,344.1502 C 211.71001,344.43814 211.0629,344.60289 210.1041,344.60289 L 209.01914,344.60289 L 209.01914,341.33318 L 209.01766,341.33318 z M 227.94277,342.63186 L 229.519,347.70933 L 226.36061,347.70933 L 227.94277,342.63186 z "
   style="fill:#b3b3b3;fill-opacity:1;fill-rule:evenodd"
   id="path2110" /><path
   d="M 149.10345,334.22087 C 149.10345,321.09752 159.74521,310.45873 172.86856,310.45873 C 185.99042,310.45873 196.6307,321.099 196.6307,334.22087 C 196.6307,347.3457 185.99042,357.983 172.86856,357.983 C 159.74521,357.983 149.10345,347.3457 149.10345,334.22087 z "
   style="fill:white"
   id="path2112" /><path
   d="M 166.99259,321.74463 L 166.99259,339.8089 C 167.27162,339.60556 167.57736,339.41113 167.90834,339.22858 C 172.50641,336.72472 174.22958,334.46279 174.15833,330.30553 C 174.06038,324.78132 170.51461,322.50454 166.99259,321.74463 z M 164.88353,316.35845 L 166.99259,316.35845 L 166.99259,319.76618 C 168.86417,319.34318 171.26562,319.07454 174.30972,319.07454 C 182.44762,319.07454 188.60263,321.67487 190.00223,329.0113 C 191.30537,335.83717 187.31879,337.88834 181.61795,339.50464 C 177.11339,340.77809 169.25155,341.09125 167.14398,343.72572 C 165.03492,346.36019 164.94587,349.70113 165.71765,352.68736 C 164.62825,349.95048 164.05683,348.1635 164.05683,345.98171 C 164.05683,344.80029 164.26907,343.4927 164.88353,342.27565 L 164.88353,321.45521 C 164.10135,321.40623 163.35777,321.4181 162.69581,321.47302 C 163.25387,321.08416 163.97223,320.70865 164.88353,320.37619 L 164.88353,316.35845 z "
   id="path2114" /><path
   d="M 172.85223,309.43908 C 159.17973,309.43908 148.10161,320.5543 148.10161,334.22977 C 148.10161,347.90376 159.17973,359.01898 172.85223,359.01898 C 186.52622,359.01898 197.64589,347.90376 197.64589,334.22977 C 197.64589,320.55578 186.52622,309.43908 172.85223,309.43908 z M 172.85223,311.47689 C 185.42791,311.47689 195.60363,321.65558 195.60363,334.22977 C 195.60363,346.80396 185.42791,356.98116 172.85223,356.98116 C 160.27952,356.98116 150.14091,346.80396 150.14091,334.22977 C 150.14091,321.65409 160.27952,311.47689 172.85223,311.47689 z "
   style="fill-rule:evenodd"
   id="path2116" /><path
   d="M 172.85223,309.43908 C 159.17973,309.43908 148.10161,320.5543 148.10161,334.22977 C 148.10161,347.90376 159.17973,359.01898 172.85223,359.01898 C 186.52622,359.01898 197.64589,347.90376 197.64589,334.22977 C 197.64589,320.55578 186.52622,309.43908 172.85223,309.43908 z M 172.85223,311.47689 C 185.42791,311.47689 195.60363,321.65558 195.60363,334.22977 C 195.60363,346.80396 185.42791,356.98116 172.85223,356.98116 C 160.27952,356.98116 150.14091,346.80396 150.14091,334.22977 C 150.14091,321.65409 160.27952,311.47689 172.85223,311.47689 z "
   style="fill:none;stroke:black;stroke-width:0.39539248;stroke-miterlimit:3.86369991"
   id="path2118" /></svg>