<?xml version="1.0" encoding="iso-8859-1"?>
<!DOCTYPE svg PUBLIC "-//W3C//DTD SVG 1.0//EN" "http://www.w3.org/TR/2001/REC-SVG-20010904/DTD/svg10.dtd">
<!-- Creator: CorelDRAW -->
<svg xmlns="http://www.w3.org/2000/svg" xmlns:odm="http://product.corel.com/CGS/11/cddns/" xml:space="preserve" width="800px" height="1132px" style="shape-rendering:geometricPrecision; text-rendering:geometricPrecision; image-rendering:optimizeQuality; fill-rule:evenodd"
     viewBox="0 0 800 1132">
 <defs>
  <style type="text/css">
   <![CDATA[
    .fil3 {fill:none}
    .fil2 {fill:#202326}
    .fil1 {fill:#E07127}
    .fil0 {fill:#FFFFFF}
   ]]>
  </style>
 </defs>
 <g id="Layer 1">
  <g>
   <path class="fil0" d="M217 174l379 0 0 129 -379 0 0 -129z"/>
   <path class="fil1" d="M217 238l379 0 0 65 -379 0 0 -65z"/>
   <path class="fil2" d="M316 186l20 0c5,0 8,2 10,4 3,2 4,5 4,9 0,4 -1,7 -4,9 -2,3 -6,4 -11,4l-7 0 0 15 -12 0 0 -41 0 0zm12 18l3 0c3,0 4,-1 5,-2 1,-1 2,-2 2,-3 0,-1 -1,-2 -2,-3 0,-1 -2,-1 -4,-1l-4 0 0 9 0 0 0 0z"/>
   <path class="fil2" d="M354 186l12 0 0 41 -12 0 0 -41z"/>
   <path class="fil2" d="M376 227l0 -41 21 0c3,0 6,1 8,1 2,1 4,2 5,4 1,2 2,4 2,7 0,2 0,4 -1,5 -1,2 -3,3 -4,4 -1,1 -3,1 -5,2 2,0 3,1 4,1 0,1 1,1 2,2 0,2 1,2 1,3l6 12 -14 0 -6 -13c-1,-1 -2,-2 -3,-3 0,0 -1,-1 -3,-1l-1 0 0 17 -12 0 0 0zm12 -24l6 0c0,0 1,0 3,-1 1,0 1,0 2,-1 0,-1 1,-2 1,-2 0,-2 -1,-3 -2,-3 0,-1 -2,-1 -4,-1l-6 0 0 8 0 0 0 0z"/>
   <path class="fil2" d="M444 220l-14 0 -2 7 -13 0 15 -41 14 0 15 41 -13 0 -2 -7zm-3 -9l-4 -14 -4 14 8 0 0 0z"/>
   <path class="fil2" d="M453 186l38 0 0 10 -13 0 0 31 -12 0 0 -31 -13 0 0 -10 0 0z"/>
   <path class="fil2" d="M495 186l34 0 0 9 -21 0 0 6 20 0 0 9 -20 0 0 7 22 0 0 10 -35 0 0 -41 0 0z"/>
   <path class="fil2" d="M536 186l12 0 15 23 0 -23 12 0 0 41 -12 0 -15 -22 0 22 -12 0 0 -41z"/>
   <path class="fil0" d="M153 237c0,-39 32,-72 71,-72 41,0 73,33 73,72 0,41 -32,73 -73,73 -39,0 -71,-32 -71,-73z"/>
   <path class="fil2" d="M207 200l0 55c1,0 1,-1 2,-2 14,-7 20,-15 19,-28 0,-16 -11,-23 -21,-25l0 0zm-7 -17l7 0 0 11c5,-2 13,-2 22,-2 25,0 44,7 48,30 4,20 -8,27 -25,32 -15,4 -38,5 -45,13 -6,8 -6,18 -4,27 -3,-8 -5,-14 -5,-20 0,-4 0,-8 2,-11l0 -64c-2,0 -4,0 -6,0 1,-1 4,-3 6,-4l0 -12 0 0z"/>
   <g>
    <path class="fil3" d="M236 212l0 30 32 0 0 -30 -32 0z"/>
    <path class="fil0" d="M251 232l-4 0 0 -2c-1,1 -2,1 -2,2 -1,0 -2,0 -3,0 -1,0 -2,0 -3,-2 -1,-1 -2,-3 -2,-5 0,-2 1,-4 2,-5 1,-1 2,-2 4,-2 1,0 2,1 3,2l0 -6 5 0 0 18 0 0zm-10 -7c0,1 0,2 0,3 1,1 1,1 2,1 1,0 2,0 3,-1 0,0 0,-1 0,-3 0,-1 0,-2 0,-3 -1,-1 -2,-1 -3,-1 0,0 -1,0 -2,1 0,1 0,2 0,3z"/>
    <path class="fil0" d="M262 228l3 0c0,2 -1,2 -2,3 -1,1 -2,1 -3,1 -3,0 -4,-1 -5,-2 -1,-1 -2,-3 -2,-5 0,-2 1,-3 2,-5 1,-1 2,-2 4,-2 2,0 4,1 5,2 1,2 2,4 1,6l-8 0c0,1 0,2 1,3 0,0 1,1 2,1 0,0 1,-1 1,-1 0,0 1,-1 1,-1l0 0zm0 -4c0,-1 0,-2 -1,-2 0,-1 -1,-1 -2,-1 0,0 -1,0 -1,1 -1,0 -1,1 -1,2l5 0 0 0z"/>
   </g>
   <g>
    <path class="fil0" d="M318 250l21 0c5,0 8,1 10,3 3,2 4,5 4,9 0,4 -2,7 -4,10 -3,2 -6,3 -11,3l-7 0 0 15 -13 0 0 -40 0 0 0 0zm13 17l3 0c2,0 4,0 5,-1 1,-1 1,-2 1,-3 0,-2 0,-3 -1,-4 -1,-1 -2,-1 -5,-1l-3 0 0 9 0 0z"/>
    <path class="fil0" d="M387 284l-16 0 -2 6 -13 0 16 -40 15 0 15 40 -13 0 -2 -6 0 0zm-3 -9l-4 -15 -6 15 10 0 0 0z"/>
    <path class="fil0" d="M413 290l0 -40 21 0c4,0 7,0 9,1 3,0 4,2 5,3 2,2 2,4 2,7 0,2 0,4 -1,6 -1,1 -2,3 -4,4 -1,0 -3,1 -5,1 2,1 3,1 4,2 0,0 1,1 2,2 1,1 1,2 2,3l6 11 -15 0 -6 -12c-1,-2 -2,-3 -3,-3 -1,-1 -2,-1 -3,-1l-1 0 0 16 -13 0 0 0 0 0zm13 -24l5 0c1,0 2,0 4,0 1,-1 1,-1 2,-2 0,0 1,-1 1,-2 0,-1 -1,-2 -2,-3 0,-1 -2,-1 -4,-1l-6 0 0 8 0 0 0 0z"/>
    <path class="fil0" d="M459 250l38 0 0 10 -12 0 0 30 -13 0 0 -30 -13 0 0 -10 0 0z"/>
    <path class="fil0" d="M510 250l34 0 0 8 -21 0 0 7 19 0 0 8 -19 0 0 8 22 0 0 9 -35 0 0 -40 0 0z"/>
    <path class="fil0" d="M560 250l12 0 0 40 -12 0 0 -40z"/>
   </g>
   <path class="fil2" d="M224 162c-41,0 -74,34 -74,75 0,43 33,76 74,76 43,0 76,-33 76,-76 0,-41 -33,-75 -76,-75zm0 7c39,0 70,30 70,68 0,39 -31,70 -70,70 -38,0 -68,-31 -68,-70 0,-38 30,-68 68,-68z"/>
  </g>
 </g>
</svg>
