<?xml version="1.0" encoding="UTF-8" standalone="no"?>
<!-- Created with Inkscape (http://www.inkscape.org/) -->
<svg xmlns:a="http://ns.adobe.com/AdobeSVGViewerExtensions/3.0/" xmlns:svg="http://www.w3.org/2000/svg" xmlns="http://www.w3.org/2000/svg" xmlns:xlink="http://www.w3.org/1999/xlink" version="1.0" width="126.26312" height="45.844898" id="svg2410">
  <defs id="defs2412">
    <linearGradient x1="125.458" y1="306.08249" x2="125.458" y2="173.0005" id="XMLID_1_" gradientUnits="userSpaceOnUse">
			<stop style="stop-color: rgb(182, 197, 212); stop-opacity: 1;" offset="0" id="stop2194"/>

			
			<stop style="stop-color: rgb(228, 235, 242); stop-opacity: 1;" offset="1" id="stop2198"/>

			<a:midPointStop style="stop-color:#BAC5CF" offset="0"/>

			<a:midPointStop style="stop-color:#BAC5CF" offset="0.4494"/>

			<a:midPointStop style="stop-color:#DDEBF7" offset="1"/>

		</linearGradient>
    <linearGradient x1="125.458" y1="306.08249" x2="125.458" y2="173.0005" id="linearGradient5254" xlink:href="#XMLID_1_" gradientUnits="userSpaceOnUse" gradientTransform="matrix(0.690484, 0, 0, 0.568759, 350.516, 267.55)"/>
    <linearGradient x1="127.5879" y1="238.2876" x2="127.5879" y2="256.01221" id="XMLID_4_" gradientUnits="userSpaceOnUse" gradientTransform="matrix(1.1567, 0, 0, 1.1567, 297.626, 127.663)">
			<stop style="stop-color: rgb(255, 123, 0); stop-opacity: 1;" offset="0" id="stop2218"/>

			<stop style="stop-color: rgb(255, 169, 71); stop-opacity: 1;" offset="0.97189999" id="stop2220"/>

			<stop style="stop-color: rgb(255, 159, 49); stop-opacity: 1;" offset="1" id="stop2222"/>

			<a:midPointStop offset="0" style="stop-color:#FF7B00"/>

			<a:midPointStop offset="0.5" style="stop-color:#FF7B00"/>

			<a:midPointStop offset="0.9719" style="stop-color:#FFA947"/>

			<a:midPointStop offset="0.5" style="stop-color:#FFA947"/>

			<a:midPointStop offset="1" style="stop-color:#FF9F31"/>

		</linearGradient>
    <linearGradient x1="77.543503" y1="217.9409" x2="77.543503" y2="259.36081" id="linearGradient7835" xlink:href="#XMLID_5_" gradientUnits="userSpaceOnUse" gradientTransform="matrix(1.1567, 0, 0, 1.1567, 297.626, 127.663)"/>
    <linearGradient x1="80.469704" y1="223.7202" x2="80.469704" y2="254.0854" id="XMLID_6_" gradientUnits="userSpaceOnUse" gradientTransform="matrix(1.1567, 0, 0, 1.1567, 297.626, 127.663)">
			<stop style="stop-color: black; stop-opacity: 1;" offset="0" id="stop2252"/>

			<stop style="stop-color: black; stop-opacity: 1;" offset="0.4091" id="stop2254"/>

			<stop style="stop-color: rgb(76, 76, 76); stop-opacity: 1;" offset="0.9091" id="stop2256"/>

			<stop style="stop-color: rgb(54, 54, 54); stop-opacity: 1;" offset="1" id="stop2258"/>

			<a:midPointStop offset="0" style="stop-color:#000000"/>

			<a:midPointStop offset="0.5" style="stop-color:#000000"/>

			<a:midPointStop offset="0.4091" style="stop-color:#000000"/>

			<a:midPointStop offset="0.5" style="stop-color:#000000"/>

			<a:midPointStop offset="0.9091" style="stop-color:#4C4C4C"/>

			<a:midPointStop offset="0.5" style="stop-color:#4C4C4C"/>

			<a:midPointStop offset="1" style="stop-color:#363636"/>

		</linearGradient>
    <linearGradient x1="78.3442" y1="217.9409" x2="78.3442" y2="230.98489" id="XMLID_8_" gradientUnits="userSpaceOnUse" gradientTransform="matrix(1.1567, 0, 0, 1.1567, 297.626, 127.663)">
			<stop style="stop-color: black; stop-opacity: 1;" offset="0" id="stop2288"/>

			<stop style="stop-color: rgb(99, 99, 99); stop-opacity: 1;" offset="1" id="stop2290"/>

			<a:midPointStop offset="0" style="stop-color:#000000"/>

			<a:midPointStop offset="0.5" style="stop-color:#000000"/>

			<a:midPointStop offset="1" style="stop-color:#696969"/>

		</linearGradient>
    <linearGradient x1="121.3486" y1="223.7202" x2="121.3486" y2="231.7661" id="XMLID_10_" gradientUnits="userSpaceOnUse" gradientTransform="matrix(0.935115, 0, 0, 0.935115, 7.14167, -28.559)">
			<stop style="stop-color: rgb(84, 84, 84); stop-opacity: 1;" offset="0" id="stop2342"/>

			<stop style="stop-color: rgb(102, 102, 102); stop-opacity: 1;" offset="0.34862384" id="stop2344"/>

			<stop style="stop-color: rgb(125, 125, 125); stop-opacity: 1;" offset="1" id="stop2346"/>

			<a:midPointStop offset="0" style="stop-color:#171717"/>

			<a:midPointStop offset="0.5" style="stop-color:#171717"/>

			<a:midPointStop offset="0.9034" style="stop-color:#636363"/>

			<a:midPointStop offset="0.5" style="stop-color:#636363"/>

			<a:midPointStop offset="1" style="stop-color:#5C5C5C"/>

		</linearGradient>
    <linearGradient x1="121.3486" y1="223.7202" x2="121.3486" y2="231.7661" id="linearGradient14383" xlink:href="#XMLID_10_" gradientUnits="userSpaceOnUse" gradientTransform="matrix(0.877218, 0, 0, 0.877218, 291.77, 136.198)" spreadMethod="reflect"/>
    <linearGradient x1="77.543503" y1="217.9409" x2="77.543503" y2="259.36081" id="XMLID_5_" gradientUnits="userSpaceOnUse" gradientTransform="matrix(0.935115, 0, 0, 0.935115, -293.586, -9.59952)">
			<stop style="stop-color: black; stop-opacity: 1;" offset="0" id="stop2243"/>

			<stop style="stop-color: black; stop-opacity: 1;" offset="0.51139998" id="stop2245"/>

			<stop style="stop-color: rgb(69, 69, 69); stop-opacity: 1;" offset="1" id="stop2247"/>

			<a:midPointStop offset="0" style="stop-color:#000000"/>

			<a:midPointStop offset="0.5" style="stop-color:#000000"/>

			<a:midPointStop offset="0.5114" style="stop-color:#000000"/>

			<a:midPointStop offset="0.5" style="stop-color:#000000"/>

			<a:midPointStop offset="1" style="stop-color:#454545"/>

		</linearGradient>
    <linearGradient x1="77.543503" y1="217.9409" x2="77.543503" y2="259.36081" id="linearGradient7833" xlink:href="#XMLID_5_" gradientUnits="userSpaceOnUse" gradientTransform="matrix(1.1567, 0, 0, 1.1567, 297.626, 127.663)"/>
  </defs>
  <g transform="translate(-842.654, -1132.06)" id="layer1">
    <path d="M 865.291,1132.0618 C 877.79393,1132.0618 887.92831,1142.197 887.92831,1154.6999 C 887.92831,1167.202 877.79393,1177.3372 865.291,1177.3372 C 852.78887,1177.3372 842.65371,1167.202 842.65371,1154.6999 C 842.65371,1142.197 852.78887,1132.0618 865.291,1132.0618 z M 865.291,1133.9248 C 853.8177,1133.9248 844.51666,1143.2258 844.51666,1154.6999 C 844.51666,1166.1732 853.8177,1175.4742 865.291,1175.4742 C 876.76472,1175.4742 886.06536,1166.1732 886.06536,1154.6999 C 886.06536,1143.2262 876.76472,1133.9248 865.291,1133.9248 z " style="fill: black; fill-opacity: 1;" id="use12731"/>
    <path d="M 860.02402,1142.582 L 860.02402,1159.5045 C 860.28623,1159.3121 860.572,1159.1304 860.88209,1158.9616 C 865.18856,1156.6154 866.80382,1154.4934 866.73631,1150.6011 C 866.6472,1145.4271 863.32442,1143.2933 860.02402,1142.582 z M 858.04998,1137.5349 L 860.02402,1137.5349 L 860.02402,1140.7273 C 861.77824,1140.3324 864.02666,1140.0804 866.87723,1140.0804 C 874.49942,1140.0804 880.26688,1142.5161 881.57794,1149.3885 C 882.79753,1155.7833 879.06494,1157.7055 873.72416,1159.2179 C 869.50522,1160.4124 862.13897,1160.7052 860.16493,1163.1731 C 858.19011,1165.6409 858.10493,1168.7706 858.82877,1171.5682 C 857.80897,1169.0045 857.27394,1167.33 857.27394,1165.2884 C 857.27394,1164.1815 857.47255,1162.9556 858.04998,1161.8153 L 858.04998,1142.3112 C 857.31556,1142.2645 856.61881,1142.2767 855.99898,1142.3281 C 856.52106,1141.9646 857.19583,1141.6129 858.04998,1141.2993 L 858.04998,1137.5349 z " id="use12733"/>
    <path d="M 945.99438,1132.0547 C 933.35346,1132.0547 923.11059,1142.3362 923.11057,1154.9771 C 923.11057,1167.618 933.3534,1177.8996 945.99438,1177.8996 C 958.63539,1177.8996 968.91682,1167.6169 968.91683,1154.9771 C 968.91683,1142.3374 958.63532,1132.0547 945.99438,1132.0547 z M 945.99438,1133.9488 C 957.61869,1133.9488 967.02272,1143.354 967.02272,1154.9771 C 967.02271,1166.6003 957.61864,1176.0055 945.99438,1176.0055 C 934.37004,1176.0055 924.96602,1166.6015 924.96602,1154.9771 C 924.96602,1143.3527 934.36998,1133.9488 945.99438,1133.9488 z " style="fill: black; fill-opacity: 1; stroke: none; stroke-width: 1.52078; stroke-miterlimit: 3.8637; stroke-opacity: 1;" id="path2508"/>
    <path d="M 940.57103,1143.4435 L 940.57103,1160.1431 C 940.82976,1159.9529 941.11136,1159.7748 941.41703,1159.6075 C 945.66622,1157.2934 947.26193,1155.1983 947.19452,1151.357 C 947.10787,1146.251 943.82863,1144.1451 940.57103,1143.4435 z M 938.62272,1138.4615 L 940.57103,1138.4615 L 940.57103,1141.612 C 942.30152,1141.2221 944.52178,1140.9729 947.33533,1140.9729 C 954.85655,1140.9729 960.54862,1143.3761 961.84227,1150.1585 C 963.04566,1156.4691 959.36207,1158.3656 954.09119,1159.8591 C 949.92865,1161.0384 942.65894,1161.3272 940.71064,1163.7629 C 938.76234,1166.1985 938.67809,1169.2865 939.39171,1172.0482 C 938.38565,1169.5163 937.85738,1167.864 937.85738,1165.8508 C 937.85738,1164.7581 938.05474,1163.5487 938.62394,1162.4235 L 938.62394,1143.1752 C 937.8995,1143.1282 937.21115,1143.1415 936.59981,1143.192 C 937.11487,1142.8334 937.77915,1142.4856 938.62394,1142.1764 L 938.62394,1138.4615 L 938.62272,1138.4615 z " id="path2510"/>
    <path d="M 953.8992,1153.5087 L 952.79112,1153.5087 L 952.79112,1152.8592 C 952.60643,1153.1121 952.389,1153.3007 952.13621,1153.4252 C 951.88864,1153.5472 951.63454,1153.6075 951.38175,1153.6075 C 950.86309,1153.6075 950.41774,1153.4034 950.04575,1152.9965 C 949.6777,1152.5858 949.49303,1152.0134 949.49303,1151.2817 C 949.49303,1150.5321 949.67506,1149.9635 950.03266,1149.5746 C 950.39286,1149.1831 950.84605,1148.9867 951.39616,1148.9867 C 951.90045,1148.9867 952.33793,1149.1921 952.70597,1149.6028 L 952.70597,1147.4053 L 953.89789,1147.4053 L 953.89789,1153.5087 L 953.8992,1153.5087 z M 950.71376,1151.2021 C 950.71376,1151.6745 950.78056,1152.0146 950.91284,1152.2264 C 951.10409,1152.5319 951.37389,1152.6833 951.71837,1152.6833 C 951.99475,1152.6833 952.22791,1152.5704 952.41911,1152.3419 C 952.61298,1152.1109 952.70858,1151.7695 952.70858,1151.3138 C 952.70858,1150.8055 952.61692,1150.441 952.42959,1150.2189 C 952.24231,1149.9943 952.00261,1149.8813 951.71053,1149.8813 C 951.42629,1149.8813 951.18922,1149.9917 950.99666,1150.2138 C 950.80937,1150.4358 950.71376,1150.7644 950.71376,1151.2021 z " style="fill: white; fill-rule: evenodd;" id="path2512"/>
    <path d="M 957.77492,1152.1019 L 958.96421,1152.297 C 958.81099,1152.7244 958.56997,1153.0505 958.23729,1153.2751 C 957.90984,1153.4971 957.49855,1153.6075 957.00214,1153.6075 C 956.21625,1153.6075 955.636,1153.3572 955.2601,1152.8554 C 954.96277,1152.4536 954.81476,1151.9453 954.81476,1151.3318 C 954.81476,1150.5988 955.00859,1150.0264 955.40025,1149.6131 C 955.79187,1149.1972 956.28569,1148.9893 956.88163,1148.9893 C 957.55488,1148.9893 958.08404,1149.2075 958.47042,1149.6426 C 958.85945,1150.0751 959.04412,1150.74 959.02841,1151.636 L 956.03812,1151.636 C 956.04598,1151.9838 956.1429,1152.2534 956.32759,1152.4472 C 956.51228,1152.6384 956.73887,1152.7347 957.01523,1152.7347 C 957.20254,1152.7347 957.35841,1152.6846 957.48545,1152.5845 C 957.61251,1152.4844 957.71076,1152.3239 957.77492,1152.1019 z M 957.84434,1150.9197 C 957.83386,1150.5822 957.74479,1150.3255 957.57584,1150.1496 C 957.40687,1149.9725 957.19992,1149.8826 956.95629,1149.8826 C 956.69564,1149.8826 956.48084,1149.975 956.30924,1150.1611 C 956.14029,1150.3473 956.05645,1150.5988 956.05909,1150.9184 L 957.84434,1150.9184 L 957.84434,1150.9197 z " style="fill: white; fill-rule: evenodd;" id="path2514"/>
  </g>
</svg>